# xmcd CD database file
#
# Track frame offsets:
#	150
#	10820
#	27728
#	44813
#	65465
#	80448
#	102570
#	122143
#	146673
#
# Disc length: 2369 seconds
#
# Revision: 3
# Processed by: cddbd v1.5.2PL0 Copyright (c) Steve Scherf et al.
# Submitted via: CDex 1.83
#
DISCID=83093f09
DTITLE=Cemetary - Godless Beauty
DYEAR=1993
DGENRE=Doom Metal
TTITLE0=Now She Walks The Shadows
TTITLE1=The Serpent's Kiss
TTITLE2=And Julie Is No More
TTITLE3=By My Own Hand
TTITLE4=Chain
TTITLE5=Adrift In Scarlet Twilight
TTITLE6=In Black
TTITLE7=Sunrise (Never Again)
TTITLE8=Where The Fire Forever Burns
EXTD=YEAR: 1993
EXTT0=
EXTT1=
EXTT2=
EXTT3=
EXTT4=
EXTT5=
EXTT6=
EXTT7=
EXTT8=
PLAYORDER=
